#!OML:ASF F:\VICON\USERDATA\INSTALL\rory3\rory3.ASF
:FULLY-SPECIFIED
:DEGREES
1060
root -0.375542 17.7901 1.04647 3.49768 29.5753 -5.54601
lowerback 4.71783 3.17371 0.87191
upperback -0.156077 4.16487 -5.92538
thorax -2.2993 2.06089 -6.92978
lowerneck -27.1639 -10.8102 -11.7994
upperneck -1.74892 -11.0418 11.355
head 4.85889 -4.50533 4.17477
rclavicle -7.55382e-015 6.99722e-014
rhumerus 59.7441 -1.22017 -10.3458
rradius 55.9953
rwrist 49.4183
rhand -40.1307 -12.868
rfingers 7.12502
rthumb -13.0938 -42.437
lclavicle -7.55382e-015 6.99722e-014
lhumerus -22.2345 -6.22661 74.866
lradius 64.8934
lwrist -0.743899
lhand -20.8377 30.0091
lfingers 7.12502
lthumb 5.5311 59.9169
rfemur -6.11192 -10.9821 21.1322
rtibia 28.8013
rfoot -24.3198 -18.9389
rtoes -6.60673
lfemur -21.4358 -1.31772 -8.75487
ltibia 30.8917
lfoot -11.9439 -3.49957
ltoes -19.3421
1061
root -0.355207 17.7916 1.06257 3.61244 30.0256 -5.69648
lowerback 4.62344 3.12579 0.876035
upperback -0.273334 4.09653 -6.11821
thorax -2.36219 2.0238 -7.13368
lowerneck -27.0572 -11.0028 -11.6985
upperneck -1.58618 -11.3639 11.4176
head 4.93121 -4.66067 4.13039
rclavicle -6.91771e-014 2.8625e-014
rhumerus 60.1837 -1.67076 -9.6183
rradius 55.3721
rwrist 49.4017
rhand -39.8042 -12.5981
rfingers 7.12502
rthumb -12.779 -42.187
lclavicle -6.91771e-014 2.8625e-014
lhumerus -22.719 -5.66021 74.5164
lradius 64.921
lwrist -0.757931
lhand -20.5511 29.7036
lfingers 7.12502
lthumb 5.80778 59.604
rfemur -6.16582 -11.5063 21.2676
rtibia 28.7342
rfoot -24.2283 -18.9326
rtoes -7.36592
lfemur -21.7708 -1.59268 -8.63931
ltibia 31.0468
lfoot -12.0671 -3.59398
ltoes -19.6534
1062
root -0.328619 17.7922 1.07943 3.69502 30.0441 -5.85217
lowerback 4.49358 3.18852 0.898638
upperback -0.364228 4.17918 -6.29799
thorax -2.35804 2.06413 -7.33838
lowerneck -26.9326 -11.1675 -11.7281
upperneck -1.63461 -11.6088 11.6786
head 4.94918 -4.7651 4.18499
rclavicle 8.50798e-014 -2.22639e-014
rhumerus 60.6841 -2.13486 -8.98257
rradius 54.7949
rwrist 49.4374
rhand -39.4276 -12.4359
rfingers 7.12502
rthumb -12.4159 -42.0471
lclavicle 8.50798e-014 -2.22639e-014
lhumerus -23.1927 -5.12698 74.1491
lradius 64.9644
lwrist -0.676068
lhand -19.7705 29.1509
lfingers 7.12502
lthumb 6.56138 59.0293
rfemur -6.25102 -11.7576 21.35
rtibia 28.7113
rfoot -24.091 -18.8154
rtoes -8.1185
lfemur -21.9111 -1.63265 -8.53481
ltibia 31.2022
lfoot -12.1996 -3.54172
ltoes -19.5034
1063
root -0.305921 17.7914 1.09593 3.71223 30.0205 -6.10332
lowerback 4.37625 3.28291 0.989843
upperback -0.42919 4.30923 -6.43744
thorax -2.32503 2.1285 -7.54113
lowerneck -26.7714 -11.3818 -11.972
upperneck -1.70534 -11.8747 12.1455
head 4.98758 -4.86697 4.33558
rclavicle -2.38542e-015 1.27222e-014
rhumerus 61.0217 -2.56961 -8.42494
rradius 54.2952
rwrist 49.4348
rhand -39.2186 -12.4472
rfingers 7.12502
rthumb -12.2144 -42.0706
lclavicle -2.38542e-015 1.27222e-014
lhumerus -23.6148 -4.61923 73.8646
lradius 65.0474
lwrist -0.474795
lhand -18.5711 28.9247
lfingers 7.12502
lthumb 7.71912 58.7638
rfemur -6.33584 -11.6843 21.5602
rtibia 28.7214
rfoot -24.2733 -18.6381
rtoes -7.37603
lfemur -22.0528 -1.61036 -8.33102
ltibia 31.3632
lfoot -12.3467 -3.5189
ltoes -19.2472
1064
root -0.290095 17.7903 1.10877 3.66973 30.1209 -6.45568
lowerback 4.33702 3.32583 1.12688
upperback -0.51107 4.37028 -6.54245
thorax -2.36139 2.15534 -7.73698
lowerneck -27.0066 -11.6228 -12.0978
upperneck -1.2013 -12.1994 12.3956
head 5.2449 -4.99464 4.36974
rclavicle 1.98785e-015 -6.36111e-014
rhumerus 61.3574 -2.96964 -7.85677
rradius 53.8357
rwrist 49.4296
rhand -39.0684 -12.4794
rfingers 7.12502
rthumb -12.0696 -42.1113
lclavicle 1.98785e-015 -6.36111e-014
lhumerus -24.0751 -4.1715 73.5371
lradius 65.1715
lwrist -0.227372
lhand -18.7737 29.3361
lfingers 7.12502
lthumb 7.52356 59.1823
rfemur -6.4172 -11.6336 21.892
rtibia 28.6933
rfoot -24.232 -18.6325
rtoes -6.27368
lfemur -22.2733 -1.65696 -8.00292
ltibia 31.5373
lfoot -12.4975 -3.53253
ltoes -19.4403
1065
root -0.272847 17.7885 1.11587 3.76193 30.2926 -6.67623
lowerback 4.26168 3.31173 1.26358
upperback -0.595997 4.35529 -6.72124
thorax -2.38551 2.14445 -8.00669
lowerneck -27.3126 -11.8006 -11.9781
upperneck -0.758062 -12.4846 12.4542
head 5.45852 -5.11232 4.31022
rclavicle 9.18385e-014 -6.04305e-014
rhumerus 61.7027 -3.44478 -7.3595
rradius 53.397
rwrist 49.4642
rhand -39.1386 -12.4844
rfingers 7.12502
rthumb -12.1373 -42.1124
lclavicle 9.18385e-014 -6.04305e-014
lhumerus -24.4339 -3.68573 73.1609
lradius 65.1847
lwrist -0.03402
lhand -19.945 30.073
lfingers 7.12502
lthumb 6.39292 59.9565
rfemur -6.5714 -11.7256 22.0794
rtibia 28.593
rfoot -23.9994 -18.7697
rtoes -5.75108
lfemur -22.5861 -1.76339 -7.82718
ltibia 31.6879
lfoot -12.6643 -3.49818
ltoes -20.1193
1066
root -0.258445 17.7876 1.12929 3.61267 30.5615 -6.93549
lowerback 4.33395 3.28312 1.33777
upperback -0.591869 4.31892 -6.82639
thorax -2.41366 2.12494 -8.16729
lowerneck -27.2142 -11.9461 -11.8757
upperneck -0.856032 -12.7231 12.5499
head 5.44352 -5.22365 4.2911
rclavicle 8.15017e-014 2.8625e-014
rhumerus 61.9898 -3.89172 -6.8567
rradius 52.9581
rwrist 49.5399
rhand -39.2347 -12.6375
rfingers 7.12502
rthumb -12.2299 -42.2599
lclavicle 8.15017e-014 2.8625e-014
lhumerus -24.7865 -3.21738 72.9191
lradius 65.1775
lwrist 0.0957177
lhand -20.685 30.4491
lfingers 7.12502
lthumb 5.67845 60.353
rfemur -6.40576 -11.8713 22.2992
rtibia 28.4361
rfoot -23.886 -18.9584
rtoes -6.33637
lfemur -22.638 -1.95365 -7.59107
ltibia 31.8182
lfoot -12.8622 -3.52366
ltoes -20.5151
1067
root -0.248733 17.7856 1.15812 3.21005 30.8139 -7.11598
lowerback 4.55436 3.26072 1.14439
upperback -0.492881 4.27739 -6.88112
thorax -2.45069 2.10782 -8.1251
lowerneck -27.1171 -12.0733 -11.8858
upperneck -0.907268 -12.923 12.7966
head 5.46077 -5.30581 4.34247
rclavicle -2.46493e-014 7.95139e-014
rhumerus 62.3031 -4.26074 -6.62126
rradius 52.4782
rwrist 49.8438
rhand -39.1946 -12.2561
rfingers 7.12502
rthumb -12.1913 -41.8808
lclavicle -2.46493e-014 7.95139e-014
lhumerus -25.2113 -2.80583 72.6212
lradius 65.2117
lwrist 0.153078
lhand -20.7131 30.4353
lfingers 7.12502
lthumb 5.65133 60.3399
rfemur -5.82845 -11.8891 22.4347
rtibia 28.2773
rfoot -24.1199 -19.0089
rtoes -6.51545
lfemur -22.2653 -2.11312 -7.40251
ltibia 31.8962
lfoot -13.1552 -3.67149
ltoes -20.5091
1068
root -0.239339 17.7837 1.18048 2.92313 31.0214 -7.39183
lowerback 4.68522 3.2241 1.09373
upperback -0.467927 4.22298 -6.91495
thorax -2.50741 2.08014 -8.13883
lowerneck -27.0462 -12.2173 -12.0345
upperneck -0.901402 -13.1149 13.1384
head 5.51685 -5.3761 4.4444
rclavicle 1.63003e-014 1.27222e-014
rhumerus 62.6149 -4.57686 -6.43984
rradius 52.0686
rwrist 50.1311
rhand -39.1616 -11.9269
rfingers 7.12502
rthumb -12.1594 -41.5535
lclavicle 1.63003e-014 1.27222e-014
lhumerus -25.6371 -2.3955 72.3229
lradius 65.1717
lwrist 0.233348
lhand -20.7129 30.2531
lfingers 7.12502
lthumb 5.6515 60.1578
rfemur -5.47709 -11.8466 22.696
rtibia 28.1256
rfoot -24.2593 -19.0896
rtoes -6.48252
lfemur -22.0767 -2.25754 -7.12181
ltibia 31.9332
lfoot -13.3586 -3.76225
ltoes -20.566
1069
root -0.227118 17.7839 1.19045 2.82689 31.1597 -7.61254
lowerback 4.75841 3.21955 1.13774
upperback -0.504562 4.21503 -6.98419
thorax -2.57955 2.073 -8.24681
lowerneck -27.0421 -12.3959 -12.085
upperneck -0.792877 -13.3666 13.2928
head 5.59806 -5.4847 4.45771
rclavicle -3.57812e-014 -3.18055e-015
rhumerus 62.8452 -4.9263 -6.12022
rradius 51.7297
rwrist 50.3678
rhand -39.1925 -12.1438
rfingers 7.12502
rthumb -12.1892 -41.7687
lclavicle -3.57812e-014 -3.18055e-015
lhumerus -26.0136 -2.04978 72.1321
lradius 65.1098
lwrist 0.360193
lhand -20.6967 30.2076
lfingers 7.12502
lthumb 5.66719 60.1118
rfemur -5.36604 -11.9001 22.8685
rtibia 28.0089
rfoot -24.26 -19.071
rtoes -6.29554
lfemur -22.0676 -2.352 -6.92804
ltibia 31.9185
lfoot -13.4511 -3.77629
ltoes -20.6962
1070
root -0.214198 17.7847 1.20061 2.87275 31.2153 -7.73558
lowerback 4.76082 3.21799 1.11523
upperback -0.584548 4.20624 -7.10716
thorax -2.65804 2.06536 -8.37171
lowerneck -26.9669 -12.4814 -12.0409
upperneck -0.799101 -13.5233 13.457
head 5.6183 -5.55112 4.47946
rclavicle -4.01545e-014 7.63333e-014
rhumerus 63.0544 -5.31426 -5.63477
rradius 51.4238
rwrist 50.2418
rhand -39.3142 -12.3792
rfingers 7.12502
rthumb -12.3066 -41.9971
lclavicle -4.01545e-014 7.63333e-014
lhumerus -26.4491 -1.84689 71.8724
lradius 65.14
lwrist 0.750596
lhand -20.9896 30.4937
lfingers 7.12502
lthumb 5.38439 60.4053
rfemur -5.40942 -11.926 22.9584
rtibia 27.9524
rfoot -24.1406 -19.0822
rtoes -6.70495
lfemur -22.1438 -2.43568 -6.81154
ltibia 31.8988
lfoot -13.5587 -3.74746
ltoes -20.8589
1071
root -0.201311 17.7887 1.21538 2.87597 31.2489 -7.85484
lowerback 4.71211 3.20232 1.06039
upperback -0.609663 4.18099 -7.22099
thorax -2.65614 2.05335 -8.46027
lowerneck -26.8269 -12.521 -11.9821
upperneck -1.02845 -13.6166 13.7266
head 5.56102 -5.58456 4.54908
rclavicle -1.145e-013 2.22639e-014
rhumerus 63.2654 -5.72399 -5.30481
rradius 51.1254
rwrist 50.2369
rhand -39.3242 -12.326
rfingers 7.12502
rthumb -12.3162 -41.9433
lclavicle -1.145e-013 2.22639e-014
lhumerus -26.8915 -1.63817 71.5319
lradius 65.2386
lwrist 0.958376
lhand -21.0414 30.6669
lfingers 7.12502
lthumb 5.33442 60.5798
rfemur -5.44857 -11.8599 23.0546
rtibia 27.9626
rfoot -23.9195 -19.2524
rtoes -6.53671
lfemur -22.1592 -2.50437 -6.69427
ltibia 31.8646
lfoot -13.6456 -3.72816
ltoes -20.6571
